<?xml version="1.0" standalone="no"?><!DOCTYPE svg PUBLIC "-//W3C//DTD SVG 1.1//EN" "http://www.w3.org/Graphics/SVG/1.1/DTD/svg11.dtd"><svg t="1578576022533" class="icon" viewBox="0 0 1024 1024" version="1.1" xmlns="http://www.w3.org/2000/svg" p-id="1540" xmlns:xlink="http://www.w3.org/1999/xlink" width="64" height="64"><defs><style type="text/css"></style></defs><path d="M454.994 588.008c-2.375 0-7.126 0-11.876 2.376l-2.376 4.75s-2.375 0-2.375 2.375l-2.375 2.376v7.125l2.375 2.376c2.375 2.375 4.75 4.75 7.126 4.75 2.375 0 7.126 0 9.5-2.375 2.376-2.375 2.376-4.75 4.751-7.126 0-2.375 2.376-4.75 2.376-7.126 0-2.375 0-4.75-2.376-7.125 0 0-2.375 0-4.75-2.376z m-30.879 28.503c-2.375-2.375-4.75-4.75-7.125-4.75-2.376-2.375-7.126-2.375-9.501-2.375h-11.877c-7.125 0-11.876 2.375-16.626 7.125-4.75 2.376-9.501 7.126-11.877 11.877-2.375 4.75-4.75 9.5-4.75 14.251v7.126c0 2.375 2.375 4.75 2.375 4.75 0 2.376 2.375 2.376 4.75 4.751l4.751 4.75c2.375 0 4.75 2.376 7.126 2.376 2.375 0 4.75 2.375 7.126 2.375h7.125c7.126 0 11.877-2.375 16.627-4.75 4.75-2.376 9.501-7.126 11.876-11.877 2.376-4.75 4.751-9.5 4.751-14.251 0-2.376 0-7.126-2.375-9.501 2.375-7.126 0-11.877-2.376-11.877zM573.757 512c-35.63-19.002-78.384-28.503-130.64-26.128-52.255 2.375-95.01 16.627-130.639 40.38-35.629 23.752-52.255 52.255-52.255 85.509 0 33.253 16.626 61.757 52.255 83.134 35.63 21.377 78.384 33.253 130.64 30.878 49.88-2.375 92.635-16.627 128.263-45.13 35.63-26.128 54.631-57.006 54.631-92.635 0-30.878-16.626-57.006-52.255-76.008z m-49.88 114.012c-2.376 11.877-7.126 21.378-14.252 30.879-16.627 21.377-38.004 35.629-64.132 40.38-26.128 4.75-57.006 2.374-87.885-14.252-4.75-2.376-9.5-7.126-14.251-9.501-4.75-4.751-7.126-7.126-7.126-11.877-2.375-2.375-2.375-7.126-4.75-11.876 0-4.75-2.376-7.126-2.376-9.501v-7.125-14.252c0-4.75 2.375-11.877 2.375-19.002 2.376-7.126 4.75-14.252 9.501-21.378 4.751-7.126 9.501-14.251 16.627-21.377 7.126-7.126 14.252-11.876 26.128-16.627 11.876-4.75 23.753-7.126 35.629-9.5 19.002-2.376 35.629 0 52.256 4.75 14.251 4.75 26.127 14.251 33.253 23.752 7.126 9.501 11.877 21.377 16.627 33.254 4.75 11.876 4.75 23.752 2.375 33.253zM512 972.8C257.507 972.8 51.2 766.493 51.2 512 51.2 257.507 257.507 51.2 512 51.2c254.493 0 460.8 206.307 460.8 460.8 0 254.493-206.307 460.8-460.8 460.8z m216.148-384.792c2.376-14.251 0-26.128-14.251-38.004-4.75-9.5-11.876-16.627-19.002-23.752-9.501-7.126-16.627-14.252-23.753-16.627-7.126-4.75-14.251-7.126-19.002-7.126-7.126-2.375-11.876-4.75-14.251-7.126 0-2.375-2.376-4.75 0-7.126l2.375-2.375c2.375 0 2.375-2.375 2.375-2.375 0-2.375 0-4.75 2.375-7.126 0-2.375 2.376-7.126 2.376-9.5 2.375-4.751 2.375-7.127 2.375-11.877v-11.876c0-4.751-2.375-9.502-4.75-14.252-2.376-4.75-4.751-7.126-9.502-11.876-7.125-4.75-16.626-9.501-26.127-11.877-9.501-2.375-21.378-2.375-30.879 0-11.876 2.376-21.377 4.75-30.878 7.126-9.501 2.375-16.627 4.75-23.753 7.126l-9.5 4.75c-4.751 0-9.502 2.376-11.877 2.376h-7.126c-2.375 0-4.75-2.376-4.75-2.376v-4.75-7.126c0-2.375 2.375-4.75 2.375-9.5 0-4.751 2.375-7.127 2.375-9.502V376.61c0-4.75-2.375-9.5-4.75-16.626-2.376-4.751-4.75-9.502-9.501-14.252-4.75-4.75-9.501-7.126-16.627-9.501-7.126-2.375-14.252-2.375-26.128-2.375-9.501 2.375-21.377 4.75-35.629 9.5-16.627 7.126-33.253 14.252-49.88 26.129-19.002 11.876-33.254 23.752-45.13 35.628-11.876 11.877-23.753 23.753-33.254 35.63-9.5 11.876-19.002 21.377-23.752 28.502l-7.126 11.877c-16.627 21.377-28.503 40.379-35.629 61.756-7.126 19.002-9.501 35.63-9.501 45.13v14.252c2.375 23.752 9.501 42.754 21.377 61.756 11.877 16.627 26.128 30.879 40.38 42.755 16.626 11.876 33.253 21.377 54.63 28.503 21.378 7.126 40.38 14.252 59.382 16.627 19.002 2.375 38.004 4.75 59.381 7.126 35.63 4.75 71.258 0 109.262-7.126 38.004-7.126 71.258-21.377 104.512-42.755 33.253-21.377 54.63-45.13 68.882-73.633 7.126-16.626 11.876-33.253 11.876-47.505zM692.52 426.491c2.375 7.125 0 14.251 4.75 23.752 0 4.75 2.375 9.501 4.75 11.877 2.376 2.375 7.126 4.75 11.877 4.75 2.375 0 4.75 0 7.126-2.375 2.375 0 2.375-2.375 4.75-4.75 0-2.376 2.375-4.751 2.375-7.126v-2.376c4.751-54.63-14.251-85.509-57.006-92.635-11.876-2.375-23.752-2.375-35.629 0-4.75 0-7.125 0-9.5 2.376l-7.126 7.125c-2.376 2.376-2.376 4.75-2.376 7.126 0 4.75 2.376 9.501 4.75 11.876 2.376 2.376 7.127 4.75 11.877 4.75 35.629-7.125 57.006 2.376 59.382 35.63z m125.888-7.126c2.376-16.627 0-30.878-2.375-42.755-2.375-11.876-7.126-23.752-14.252-35.629-7.125-11.876-14.251-21.377-21.377-28.503-7.126-7.125-16.627-14.251-26.128-21.377l-28.503-14.252c-9.5-4.75-19.002-7.125-28.503-9.5-21.377-4.751-47.505-4.751-83.134 2.375h-2.375v2.375c-4.75 2.375-9.501 4.75-11.876 9.501-2.376 4.75-4.751 9.501-4.751 14.252 0 7.125 2.375 11.876 7.126 16.626 4.75 4.75 9.5 7.126 16.627 7.126h9.5c2.376-2.375 4.751-2.375 7.126-2.375 2.376 0 2.376-2.375 4.75-2.375H666.393c7.126 0 16.627 2.375 23.752 4.75 7.126 2.375 16.627 4.75 23.753 9.501 7.126 2.375 16.627 9.501 23.752 16.627 7.126 7.126 14.252 16.627 21.378 26.128 11.876 28.503 14.251 54.63 7.126 80.759v4.75c-2.376 2.375-2.376 2.375-2.376 4.75-2.375 2.376-2.375 4.751-2.375 7.126v7.126c0 2.375 0 7.126 2.375 9.501 2.376 4.75 7.126 7.126 9.501 7.126 2.376 2.375 7.126 2.375 11.877 2.375 14.251 0 21.377-7.126 23.752-23.752 4.75-19.002 9.501-35.63 9.501-52.256z" fill="#FF5F5F" p-id="1541"></path></svg>